<svg width="261" height="46" viewBox="0 0 261 46" fill="none" xmlns="http://www.w3.org/2000/svg">
<path d="M22.9997 0C35.7026 0 45.9997 10.2971 45.9997 23V39.1C45.9997 40.93 45.2728 42.685 43.9788 43.979C42.6848 45.273 40.9297 46 39.0997 46H24.1497V35.9099C24.1497 33.6076 24.29 31.2225 25.4975 29.2629C26.362 27.8586 27.5185 26.6566 28.8884 25.7385C30.2583 24.8204 31.8096 24.2077 33.4371 23.9418L33.8776 23.8705C34.0592 23.8085 34.2168 23.6912 34.3284 23.5351C34.44 23.379 34.5 23.1919 34.5 23C34.5 22.8081 34.44 22.621 34.3284 22.4649C34.2168 22.3088 34.0592 22.1915 33.8776 22.1294L33.4371 22.0581C31.0591 21.6697 28.8632 20.5441 27.1594 18.8403C25.4556 17.1365 24.3301 14.9406 23.9416 12.5626L23.8703 12.1222C23.8082 11.9406 23.6909 11.7829 23.5348 11.6713C23.3787 11.5597 23.1916 11.4997 22.9997 11.4997C22.8078 11.4997 22.6208 11.5597 22.4647 11.6713C22.3086 11.7829 22.1913 11.9406 22.1292 12.1222L22.0579 12.5626C21.7922 14.1902 21.1795 15.7415 20.2614 17.1114C19.3433 18.4814 18.1412 19.6378 16.7368 20.5022C14.7772 21.7097 12.3921 21.85 10.0898 21.85H0.0273438C0.628794 9.68185 10.6832 0 22.9997 0Z" fill="#20D0CE"/>
<path d="M0 24.15H10.0901C12.3924 24.15 14.7775 24.2903 16.7371 25.4978C18.2689 26.4417 19.5583 27.7311 20.5022 29.2629C21.7097 31.2225 21.85 33.6076 21.85 35.9099V46H6.9C5.07001 46 3.31496 45.273 2.02096 43.979C0.726962 42.685 0 40.93 0 39.1L0 24.15ZM46 2.3C46 2.91 45.7577 3.49501 45.3263 3.92635C44.895 4.35768 44.31 4.6 43.7 4.6C43.09 4.6 42.505 4.35768 42.0737 3.92635C41.6423 3.49501 41.4 2.91 41.4 2.3C41.4 1.69 41.6423 1.10499 42.0737 0.673654C42.505 0.242321 43.09 0 43.7 0C44.31 0 44.895 0.242321 45.3263 0.673654C45.7577 1.10499 46 1.69 46 2.3Z" fill="#20D0CE"/>
<path d="M59.448 37V13.098H64.072V37H59.448ZM74.442 37V13.098H79.066V37H74.442ZM62.372 26.698V22.618H75.734V26.698H62.372ZM91.3299 37.34C89.6072 37.34 88.0772 36.9773 86.7399 36.252C85.4026 35.504 84.3372 34.484 83.5439 33.192C82.7732 31.9 82.3879 30.4267 82.3879 28.772C82.3879 27.14 82.7619 25.6893 83.5099 24.42C84.2806 23.128 85.3232 22.108 86.6379 21.36C87.9526 20.5893 89.4146 20.204 91.0239 20.204C92.6106 20.204 94.0046 20.5667 95.2059 21.292C96.4299 21.9947 97.3819 22.9693 98.0619 24.216C98.7646 25.44 99.1159 26.834 99.1159 28.398C99.1159 28.6927 99.0932 28.9987 99.0479 29.316C99.0252 29.6107 98.9686 29.9507 98.8779 30.336L85.0739 30.37V27.038L96.8039 27.004L95.0019 28.398C94.9566 27.4233 94.7752 26.6073 94.4579 25.95C94.1632 25.2927 93.7212 24.794 93.1319 24.454C92.5652 24.0913 91.8626 23.91 91.0239 23.91C90.1399 23.91 89.3692 24.114 88.7119 24.522C88.0546 24.9073 87.5446 25.4627 87.1819 26.188C86.8419 26.8907 86.6719 27.7293 86.6719 28.704C86.6719 29.7013 86.8532 30.574 87.2159 31.322C87.6012 32.0473 88.1452 32.614 88.8479 33.022C89.5506 33.4073 90.3666 33.6 91.2959 33.6C92.1346 33.6 92.8939 33.464 93.5739 33.192C94.2539 32.8973 94.8432 32.4667 95.3419 31.9L97.9599 34.518C97.1666 35.4473 96.1919 36.15 95.0359 36.626C93.9026 37.102 92.6672 37.34 91.3299 37.34ZM108.738 37.34C107.242 37.34 105.894 36.966 104.692 36.218C103.491 35.47 102.55 34.45 101.87 33.158C101.19 31.866 100.85 30.4153 100.85 28.806C100.85 27.174 101.19 25.712 101.87 24.42C102.55 23.128 103.491 22.108 104.692 21.36C105.894 20.612 107.242 20.238 108.738 20.238C109.917 20.238 110.971 20.476 111.9 20.952C112.83 21.428 113.566 22.0967 114.11 22.958C114.677 23.7967 114.983 24.7487 115.028 25.814V31.73C114.983 32.818 114.677 33.7813 114.11 34.62C113.566 35.4587 112.83 36.1273 111.9 36.626C110.971 37.102 109.917 37.34 108.738 37.34ZM109.554 33.226C110.801 33.226 111.81 32.818 112.58 32.002C113.351 31.1633 113.736 30.0867 113.736 28.772C113.736 27.9107 113.555 27.1513 113.192 26.494C112.852 25.814 112.365 25.2927 111.73 24.93C111.118 24.5447 110.393 24.352 109.554 24.352C108.738 24.352 108.013 24.5447 107.378 24.93C106.766 25.2927 106.279 25.814 105.916 26.494C105.576 27.1513 105.406 27.9107 105.406 28.772C105.406 29.656 105.576 30.438 105.916 31.118C106.279 31.7753 106.766 32.2967 107.378 32.682C108.013 33.0447 108.738 33.226 109.554 33.226ZM113.498 37V32.58L114.212 28.568L113.498 24.624V20.578H117.918V37H113.498ZM121.859 37V12.418H126.313V37H121.859ZM132.673 37V13.744H137.127V37H132.673ZM128.831 24.488V20.578H140.969V24.488H128.831ZM154.524 37V27.582C154.524 26.6073 154.218 25.814 153.606 25.202C152.994 24.59 152.201 24.284 151.226 24.284C150.591 24.284 150.025 24.42 149.526 24.692C149.027 24.964 148.631 25.3493 148.336 25.848C148.064 26.3467 147.928 26.9247 147.928 27.582L146.194 26.698C146.194 25.406 146.466 24.284 147.01 23.332C147.554 22.3573 148.302 21.598 149.254 21.054C150.229 20.51 151.339 20.238 152.586 20.238C153.833 20.238 154.932 20.51 155.884 21.054C156.859 21.598 157.618 22.346 158.162 23.298C158.706 24.25 158.978 25.3493 158.978 26.596V37H154.524ZM143.474 37V12.418H147.928V37H143.474ZM169.682 37V13.098H172.912L174.306 17.722V37H169.682ZM186.206 37L172.028 18.64L172.912 13.098L187.09 31.458L186.206 37ZM186.206 37L184.88 32.512V13.098H189.538V37H186.206ZM201.764 37.34C200.041 37.34 198.511 36.9773 197.174 36.252C195.836 35.504 194.771 34.484 193.978 33.192C193.207 31.9 192.822 30.4267 192.822 28.772C192.822 27.14 193.196 25.6893 193.944 24.42C194.714 23.128 195.757 22.108 197.072 21.36C198.386 20.5893 199.848 20.204 201.458 20.204C203.044 20.204 204.438 20.5667 205.64 21.292C206.864 21.9947 207.816 22.9693 208.496 24.216C209.198 25.44 209.55 26.834 209.55 28.398C209.55 28.6927 209.527 28.9987 209.482 29.316C209.459 29.6107 209.402 29.9507 209.312 30.336L195.508 30.37V27.038L207.238 27.004L205.436 28.398C205.39 27.4233 205.209 26.6073 204.892 25.95C204.597 25.2927 204.155 24.794 203.566 24.454C202.999 24.0913 202.296 23.91 201.458 23.91C200.574 23.91 199.803 24.114 199.146 24.522C198.488 24.9073 197.978 25.4627 197.616 26.188C197.276 26.8907 197.106 27.7293 197.106 28.704C197.106 29.7013 197.287 30.574 197.65 31.322C198.035 32.0473 198.579 32.614 199.282 33.022C199.984 33.4073 200.8 33.6 201.73 33.6C202.568 33.6 203.328 33.464 204.008 33.192C204.688 32.8973 205.277 32.4667 205.776 31.9L208.394 34.518C207.6 35.4473 206.626 36.15 205.47 36.626C204.336 37.102 203.101 37.34 201.764 37.34ZM222.14 37L217.822 30.336L216.904 29.656L210.512 20.578H215.782L219.76 26.596L220.61 27.242L227.376 37H222.14ZM210.172 37L216.87 27.616L219.42 30.642L215.204 37H210.172ZM220.78 29.622L218.162 26.63L222.072 20.578H227.07L220.78 29.622ZM236.673 37.34C235.223 37.34 233.931 37.034 232.797 36.422C231.687 35.81 230.814 34.96 230.179 33.872C229.545 32.784 229.227 31.526 229.227 30.098V20.578H233.715V29.996C233.715 30.676 233.829 31.2653 234.055 31.764C234.282 32.24 234.622 32.6027 235.075 32.852C235.529 33.1013 236.061 33.226 236.673 33.226C237.603 33.226 238.328 32.9427 238.849 32.376C239.371 31.8093 239.631 31.016 239.631 29.996V20.578H244.085V30.098C244.085 31.5487 243.768 32.818 243.133 33.906C242.521 34.994 241.649 35.844 240.515 36.456C239.405 37.0453 238.124 37.34 236.673 37.34ZM253.276 37.374C252.347 37.374 251.429 37.2493 250.522 37C249.638 36.7507 248.822 36.4107 248.074 35.98C247.326 35.5267 246.68 34.9827 246.136 34.348L248.788 31.662C249.355 32.2967 250.012 32.7727 250.76 33.09C251.508 33.4073 252.335 33.566 253.242 33.566C253.967 33.566 254.511 33.464 254.874 33.26C255.259 33.056 255.452 32.75 255.452 32.342C255.452 31.8887 255.248 31.5373 254.84 31.288C254.455 31.0387 253.945 30.8347 253.31 30.676C252.675 30.4947 252.007 30.302 251.304 30.098C250.624 29.8713 249.967 29.588 249.332 29.248C248.697 28.8853 248.176 28.398 247.768 27.786C247.383 27.1513 247.19 26.3353 247.19 25.338C247.19 24.2953 247.439 23.3887 247.938 22.618C248.459 21.8473 249.196 21.2467 250.148 20.816C251.1 20.3853 252.222 20.17 253.514 20.17C254.874 20.17 256.098 20.408 257.186 20.884C258.297 21.36 259.215 22.074 259.94 23.026L257.254 25.712C256.755 25.1 256.189 24.658 255.554 24.386C254.942 24.114 254.273 23.978 253.548 23.978C252.891 23.978 252.381 24.08 252.018 24.284C251.678 24.488 251.508 24.7713 251.508 25.134C251.508 25.542 251.701 25.8593 252.086 26.086C252.494 26.3127 253.015 26.5167 253.65 26.698C254.285 26.8567 254.942 27.0493 255.622 27.276C256.325 27.48 256.982 27.7747 257.594 28.16C258.229 28.5453 258.739 29.0553 259.124 29.69C259.532 30.3247 259.736 31.1407 259.736 32.138C259.736 33.7473 259.158 35.028 258.002 35.98C256.846 36.9093 255.271 37.374 253.276 37.374Z" fill="#000B6D"/>
</svg>
